<?xml version="1.0" encoding="UTF-8" standalone="no"?>
<!-- Created by diasvg.py -->
<svg width="44.093cm" height="31.900cm" viewBox="0.900 -5.363 44.992 26.538"
 xmlns="http://www.w3.org/2000/svg"
 xmlns:xlink="http://www.w3.org/1999/xlink">
<rect x="28.200" y="20.550" width="4.865" height="1.800" fill="#FFFFFF" stroke="none" stroke-width="0"/>
<rect x="28.200" y="20.550" width="4.865" height="1.800" fill="none" stroke="#000000" stroke-width="0.100" />
<text x="30.633" y="21.644"  fill="#000000" text-anchor="middle" font-size="0.80" font-family="monospace" font-style="normal" font-weight="400">
Bookstore</text>
<rect x="12.050" y="20.450" width="2.940" height="1.800" fill="#FFFFFF" stroke="none" stroke-width="0"/>
<rect x="12.050" y="20.450" width="2.940" height="1.800" fill="none" stroke="#000000" stroke-width="0.100" />
<text x="13.520" y="21.544"  fill="#000000" text-anchor="middle" font-size="0.80" font-family="monospace" font-style="normal" font-weight="400">
Book</text>
<rect x="6.800" y="6.650" width="3.710" height="1.800" fill="#FFFFFF" stroke="none" stroke-width="0"/>
<rect x="6.800" y="6.650" width="3.710" height="1.800" fill="none" stroke="#000000" stroke-width="0.100" />
<text x="8.655" y="7.744"  fill="#000000" text-anchor="middle" font-size="0.80" font-family="monospace" font-style="normal" font-weight="400">
Author</text>
<rect x="32.050" y="6.050" width="4.480" height="1.800" fill="#FFFFFF" stroke="none" stroke-width="0"/>
<rect x="32.050" y="6.050" width="4.480" height="1.800" fill="none" stroke="#000000" stroke-width="0.100" />
<text x="34.290" y="7.144"  fill="#000000" text-anchor="middle" font-size="0.80" font-family="monospace" font-style="normal" font-weight="400">
Magazine</text>
<rect x="20.900" y="12.650" width="4.480" height="1.800" fill="#FFFFFF" stroke="none" stroke-width="0"/>
<rect x="20.900" y="12.650" width="4.480" height="1.800" fill="none" stroke="#000000" stroke-width="0.100" />
<text x="23.140" y="13.744"  fill="#000000" text-anchor="middle" font-size="0.80" font-family="monospace" font-style="normal" font-weight="400">
Category</text>
<rect x="17.150" y="2.050" width="4.865" height="1.800" fill="#FFFFFF" stroke="none" stroke-width="0"/>
<rect x="17.150" y="2.050" width="4.865" height="1.800" fill="none" stroke="#000000" stroke-width="0.100" />
<text x="19.582" y="3.144"  fill="#000000" text-anchor="middle" font-size="0.80" font-family="monospace" font-style="normal" font-weight="400">
Publisher</text>
<polygon fill="#FF00FF" stroke="none" stroke-width="0.100" points="7.250,14.409 9.598,13.000 11.945,14.409 9.598,15.817 "/>
<polygon fill="none" stroke="#000000" stroke-width="0.100"  points="7.250,14.409 9.598,13.000 11.945,14.409 9.598,15.817 "/>
<text x="9.598" y="14.603"  fill="#000000" text-anchor="middle" font-size="0.80" font-family="monospace" font-style="normal" font-weight="400">
written</text>
<polygon fill="#FF00FF" stroke="none" stroke-width="0.100" points="15.175,16.328 17.137,15.150 19.100,16.328 17.137,17.505 "/>
<polygon fill="none" stroke="#000000" stroke-width="0.100"  points="15.175,16.328 17.137,15.150 19.100,16.328 17.137,17.505 "/>
<text x="17.137" y="16.522"  fill="#000000" text-anchor="middle" font-size="0.80" font-family="monospace" font-style="normal" font-weight="400">
is in</text>
<polygon fill="#FF00FF" stroke="none" stroke-width="0.100" points="31.875,13.453 33.837,12.275 35.800,13.453 33.837,14.630 "/>
<polygon fill="none" stroke="#000000" stroke-width="0.100"  points="31.875,13.453 33.837,12.275 35.800,13.453 33.837,14.630 "/>
<text x="33.837" y="13.647"  fill="#000000" text-anchor="middle" font-size="0.80" font-family="monospace" font-style="normal" font-weight="400">
sells</text>
<polygon fill="#FF00FF" stroke="none" stroke-width="0.100" points="20.625,21.427 22.587,20.250 24.550,21.427 22.587,22.605 "/>
<polygon fill="none" stroke="#000000" stroke-width="0.100"  points="20.625,21.427 22.587,20.250 24.550,21.427 22.587,22.605 "/>
<text x="22.587" y="21.622"  fill="#000000" text-anchor="middle" font-size="0.80" font-family="monospace" font-style="normal" font-weight="400">
sells</text>
<polygon fill="#FF00FF" stroke="none" stroke-width="0.100" points="25.075,5.614 27.807,3.975 30.540,5.614 27.807,7.254 "/>
<polygon fill="none" stroke="#000000" stroke-width="0.100"  points="25.075,5.614 27.807,3.975 30.540,5.614 27.807,7.254 "/>
<text x="27.807" y="5.809"  fill="#000000" text-anchor="middle" font-size="0.80" font-family="monospace" font-style="normal" font-weight="400">
publishes</text>
<polygon fill="#FF00FF" stroke="none" stroke-width="0.100" points="13.925,8.439 16.657,6.800 19.390,8.439 16.657,10.079 "/>
<polygon fill="none" stroke="#000000" stroke-width="0.100"  points="13.925,8.439 16.657,6.800 19.390,8.439 16.657,10.079 "/>
<text x="16.657" y="8.634"  fill="#000000" text-anchor="middle" font-size="0.80" font-family="monospace" font-style="normal" font-weight="400">
publishes</text>
<polygon fill="#FF00FF" stroke="none" stroke-width="0.100" points="8.475,1.930 11.400,0.175 14.325,1.930 11.400,3.685 "/>
<polygon fill="none" stroke="#000000" stroke-width="0.100"  points="8.475,1.930 11.400,0.175 14.325,1.930 11.400,3.685 "/>
<text x="11.400" y="2.124"  fill="#000000" text-anchor="middle" font-size="0.80" font-family="monospace" font-style="normal" font-weight="400">
works with</text>
<ellipse cx="2.895" cy="7.312" rx="1.945" ry="0.900" fill="#00FF00" stroke="none"  /><ellipse cx="2.895" cy="7.312" rx="1.945" ry="0.900" fill="none" stroke="#000000"  stroke-width="0.100" /><text x="2.895" y="7.507"  fill="#000000" text-anchor="middle" font-size="0.80" font-family="sans" font-style="normal" font-weight="400">
Name</text>
<ellipse cx="6.800" cy="21.062" rx="1.625" ry="0.900" fill="#00FF00" stroke="none"  /><ellipse cx="6.800" cy="21.062" rx="1.625" ry="0.900" fill="none" stroke="#000000"  stroke-width="0.100" /><text x="6.800" y="21.257"  fill="#000000" text-anchor="middle" font-size="0.80" font-family="sans" font-style="normal" font-weight="400">
title</text>
<ellipse cx="23.620" cy="10.037" rx="1.945" ry="0.900" fill="#00FF00" stroke="none"  /><ellipse cx="23.620" cy="10.037" rx="1.945" ry="0.900" fill="none" stroke="#000000"  stroke-width="0.100" /><text x="23.620" y="10.232"  fill="#000000" text-anchor="middle" font-size="0.80" font-family="sans" font-style="normal" font-weight="400">
Name</text>
<ellipse cx="19.470" cy="-1.638" rx="1.945" ry="0.900" fill="#00FF00" stroke="none"  /><ellipse cx="19.470" cy="-1.638" rx="1.945" ry="0.900" fill="none" stroke="#000000"  stroke-width="0.100" /><text x="19.470" y="-1.443"  fill="#000000" text-anchor="middle" font-size="0.80" font-family="sans" font-style="normal" font-weight="400">
Name</text>
<ellipse cx="31.470" cy="25.587" rx="1.945" ry="0.900" fill="#00FF00" stroke="none"  /><ellipse cx="31.470" cy="25.587" rx="1.945" ry="0.900" fill="none" stroke="#000000"  stroke-width="0.100" /><text x="31.470" y="25.782"  fill="#000000" text-anchor="middle" font-size="0.80" font-family="sans" font-style="normal" font-weight="400">
Name</text>
<ellipse cx="39.450" cy="4.013" rx="1.625" ry="0.900" fill="#00FF00" stroke="none"  /><ellipse cx="39.450" cy="4.013" rx="1.625" ry="0.900" fill="none" stroke="#000000"  stroke-width="0.100" /><text x="39.450" y="4.207"  fill="#000000" text-anchor="middle" font-size="0.80" font-family="sans" font-style="normal" font-weight="400">
title</text>
<ellipse cx="8.373" cy="24.837" rx="1.797" ry="0.900" fill="#00FF00" stroke="none"  /><ellipse cx="8.373" cy="24.837" rx="1.797" ry="0.900" fill="none" stroke="#000000"  stroke-width="0.100" /><text x="8.373" y="25.032"  fill="#000000" text-anchor="middle" font-size="0.80" font-family="sans" font-style="normal" font-weight="400">
price</text>
<ellipse cx="35.523" cy="1.962" rx="1.797" ry="0.900" fill="#00FF00" stroke="none"  /><ellipse cx="35.523" cy="1.962" rx="1.797" ry="0.900" fill="none" stroke="#000000"  stroke-width="0.100" /><text x="35.523" y="2.157"  fill="#000000" text-anchor="middle" font-size="0.80" font-family="sans" font-style="normal" font-weight="400">
price</text>
<ellipse cx="3.953" cy="15.138" rx="1.678" ry="0.900" fill="#00FF00" stroke="none"  /><ellipse cx="3.953" cy="15.138" rx="1.678" ry="0.900" fill="none" stroke="#000000"  stroke-width="0.100" /><text x="3.953" y="15.332"  fill="#000000" text-anchor="middle" font-size="0.80" font-family="sans" font-style="normal" font-weight="400">
Year</text>
<ellipse cx="28.003" cy="1.262" rx="1.678" ry="0.900" fill="#00FF00" stroke="none"  /><ellipse cx="28.003" cy="1.262" rx="1.678" ry="0.900" fill="none" stroke="#000000"  stroke-width="0.100" /><text x="28.003" y="1.457"  fill="#000000" text-anchor="middle" font-size="0.80" font-family="sans" font-style="normal" font-weight="400">
Year</text>
<ellipse cx="14.053" cy="5.988" rx="1.678" ry="0.900" fill="#00FF00" stroke="none"  /><ellipse cx="14.053" cy="5.988" rx="1.678" ry="0.900" fill="none" stroke="#000000"  stroke-width="0.100" /><text x="14.053" y="6.182"  fill="#000000" text-anchor="middle" font-size="0.80" font-family="sans" font-style="normal" font-weight="400">
Year</text>
<ellipse cx="37.351" cy="21.912" rx="2.276" ry="0.900" fill="#00FF00" stroke="none"  /><ellipse cx="37.351" cy="21.912" rx="2.276" ry="0.900" fill="none" stroke="#000000"  stroke-width="0.100" /><text x="37.351" y="22.107"  fill="#000000" text-anchor="middle" font-size="0.80" font-family="sans" font-style="normal" font-weight="400">
Address</text>
<line x1="14.053" y1="6.888" x2="15.291" y2="7.620" stroke="#000000" stroke-width="0.100" />
<line x1="4.840" y1="7.312" x2="6.800" y2="7.550" stroke="#000000" stroke-width="0.100" />
<line x1="5.632" y1="15.137" x2="8.424" y2="15.113" stroke="#000000" stroke-width="0.100" />
<line x1="8.425" y1="21.062" x2="12.050" y2="21.350" stroke="#000000" stroke-width="0.100" />
<line x1="10.170" y1="24.837" x2="13.520" y2="22.250" stroke="#000000" stroke-width="0.100" />
<line x1="31.470" y1="24.688" x2="30.633" y2="22.350" stroke="#000000" stroke-width="0.100" />
<line x1="35.075" y1="21.913" x2="33.065" y2="21.450" stroke="#000000" stroke-width="0.100" />
<line x1="38.301" y1="4.649" x2="36.530" y2="6.050" stroke="#000000" stroke-width="0.100" />
<line x1="35.523" y1="2.862" x2="34.290" y2="6.050" stroke="#000000" stroke-width="0.100" />
<line x1="28.003" y1="2.163" x2="27.808" y2="3.975" stroke="#000000" stroke-width="0.100" />
<line x1="19.470" y1="-0.738" x2="19.582" y2="2.050" stroke="#000000" stroke-width="0.100" />
<line x1="23.500" y1="11.113" x2="23.140" y2="12.650" stroke="#000000" stroke-width="0.100" />
<line x1="4.330" y1="-4.613" x2="12.330" y2="-4.613" stroke="#FF00FF" stroke-width="0.200" stroke-dasharray="0.20,0.20"/>
<text x="12.830" y="-4.786"  fill="#000000" text-anchor="start" font-size="0.78" font-family="monospace" font-style="normal" font-weight="400">
This Lines represent</text>
<text x="12.830" y="-4.010"  fill="#000000" text-anchor="start" font-size="0.78" font-family="monospace" font-style="normal" font-weight="400">
a double line.</text>
<line x1="4.330" y1="-4.113" x2="12.330" y2="-4.113" stroke="#00FFAB" stroke-width="0.200" stroke-dasharray="0.20,0.20"/>
<line x1="9.598" y1="13.000" x2="8.655" y2="8.450" stroke="#FF00FF" stroke-width="0.100" />
<line x1="9.598" y1="15.817" x2="12.050" y2="20.450" stroke="#FF00FF" stroke-width="0.200" stroke-dasharray="0.20,0.20"/>
<path stroke="#FF00FF" fill="none" stroke-width="0.200" stroke-dasharray="0.20,0.20" d="M 16.657,10.079 C 16.900,11.863 13.350,15.312 13.520,20.450 "/>
<line x1="14.990" y1="20.450" x2="17.137" y2="17.505" stroke="#FF00FF" stroke-width="0.200" stroke-dasharray="0.20,0.20"/>
<path stroke="#FF00FF" fill="none" stroke-width="0.100"  d="M 19.100,16.328 C 21.950,16.712 23.050,15.963 23.140,14.450 "/>
<line x1="14.990" y1="21.350" x2="20.625" y2="21.427" stroke="#FF00FF" stroke-width="0.100" />
<line x1="24.550" y1="21.427" x2="28.200" y2="21.450" stroke="#FF00FF" stroke-width="0.200" stroke-dasharray="0.20,0.20"/>
<line x1="33.837" y1="14.630" x2="30.633" y2="20.550" stroke="#FF00FF" stroke-width="0.200" stroke-dasharray="0.20,0.20"/>
<line x1="33.837" y1="12.275" x2="34.290" y2="7.850" stroke="#FF00FF" stroke-width="0.100" />
<line x1="32.050" y1="6.950" x2="30.540" y2="5.614" stroke="#FF00FF" stroke-width="0.100" />
<line x1="25.075" y1="5.614" x2="22.015" y2="2.950" stroke="#FF00FF" stroke-width="0.100" />
<line x1="16.657" y1="6.800" x2="19.582" y2="3.850" stroke="#FF00FF" stroke-width="0.100" />
<line x1="17.150" y1="2.950" x2="14.325" y2="1.930" stroke="#FF00FF" stroke-width="0.200" stroke-dasharray="0.20,0.20"/>
<text x="14.800" y="20.012"  fill="#000000" text-anchor="start" font-size="0.80" font-family="sans" font-style="normal" font-weight="400">
1</text>
<text x="27.400" y="20.913"  fill="#000000" text-anchor="start" font-size="0.80" font-family="sans" font-style="normal" font-weight="400">
m</text>
<text x="19.550" y="4.713"  fill="#000000" text-anchor="start" font-size="0.80" font-family="sans" font-style="normal" font-weight="400">
1</text>
<text x="13.700" y="19.863"  fill="#000000" text-anchor="start" font-size="0.80" font-family="sans" font-style="normal" font-weight="400">
m</text>
<text x="12.050" y="19.613"  fill="#000000" text-anchor="start" font-size="0.80" font-family="sans" font-style="normal" font-weight="400">
m</text>
<text x="9.250" y="9.412"  fill="#000000" text-anchor="start" font-size="0.80" font-family="sans" font-style="normal" font-weight="400">
n</text>
<text x="22.600" y="2.812"  fill="#000000" text-anchor="start" font-size="0.80" font-family="sans" font-style="normal" font-weight="400">
1</text>
<text x="30.900" y="7.263"  fill="#000000" text-anchor="start" font-size="0.80" font-family="sans" font-style="normal" font-weight="400">
m</text>
<text x="34.850" y="8.662"  fill="#000000" text-anchor="start" font-size="0.80" font-family="sans" font-style="normal" font-weight="400">
n</text>
<text x="31.700" y="19.962"  fill="#000000" text-anchor="start" font-size="0.80" font-family="sans" font-style="normal" font-weight="400">
m</text>
<text x="15.500" y="22.212"  fill="#000000" text-anchor="start" font-size="0.80" font-family="sans" font-style="normal" font-weight="400">
n</text>
<text x="23.350" y="15.512"  fill="#000000" text-anchor="start" font-size="0.80" font-family="sans" font-style="normal" font-weight="400">
m</text>
<text x="9.200" y="6.162"  fill="#000000" text-anchor="start" font-size="0.80" font-family="sans" font-style="normal" font-weight="400">
m</text>
<text x="16.200" y="2.413"  fill="#000000" text-anchor="start" font-size="0.80" font-family="sans" font-style="normal" font-weight="400">
n</text>
<text x="23.450" y="-4.487"  fill="#000000" text-anchor="start" font-size="0.80" font-family="sans" font-style="normal" font-weight="400">
- A book needs to be published by a publisher to that it can be sold</text>
<text x="23.450" y="-3.688"  fill="#000000" text-anchor="start" font-size="0.80" font-family="sans" font-style="normal" font-weight="400">
- A publisher publicies magazines</text>
<text x="23.450" y="-2.888"  fill="#000000" text-anchor="start" font-size="0.80" font-family="sans" font-style="normal" font-weight="400">
- An author works for a publisher</text>
<path stroke="#FF00FF" fill="none" stroke-width="0.100"  d="M 8.655,6.650 C 8.500,3.513 5.450,1.962 8.475,1.930 "/>
</svg>