<?xml version="1.0" encoding="UTF-8" standalone="no"?>
<!-- Created by diasvg.py -->
<svg width="60.180cm" height="32.799cm" viewBox="-6.050 -2.050 54.130 30.749"
 xmlns="http://www.w3.org/2000/svg"
 xmlns:xlink="http://www.w3.org/1999/xlink">
<rect x="2.000" y="3.000" width="3.710" height="1.800" fill="#FFFFFF" stroke="none" stroke-width="0"/>
<rect x="2.000" y="3.000" width="3.710" height="1.800" fill="none" stroke="#000000" stroke-width="0.100" />
<text x="3.855" y="4.094"  fill="#000000" text-anchor="middle" font-size="0.80" font-family="monospace" font-style="normal" font-weight="400">
Center</text>
<rect x="16.000" y="10.000" width="3.710" height="1.800" fill="#FFFFFF" stroke="none" stroke-width="0"/>
<rect x="16.000" y="10.000" width="3.710" height="1.800" fill="none" stroke="#000000" stroke-width="0.100" />
<text x="17.855" y="11.094"  fill="#000000" text-anchor="middle" font-size="0.80" font-family="monospace" font-style="normal" font-weight="400">
Person</text>
<ellipse cx="0.385" cy="-1.100" rx="1.385" ry="0.900" fill="#00FF00" stroke="none"  /><ellipse cx="0.385" cy="-1.100" rx="1.385" ry="0.900" fill="none" stroke="#000000"  stroke-width="0.100" /><text x="0.385" y="-0.906"  fill="#000000" text-anchor="middle" font-size="0.80" font-family="monospace" font-style="normal" font-weight="400">
ID</text>
<line x1="0.000" y1="-0.700" x2="0.770" y2="-0.700" stroke="#000000" stroke-width="0.100" />
<ellipse cx="5.155" cy="-1.100" rx="2.155" ry="0.900" fill="#00FF00" stroke="none"  /><ellipse cx="5.155" cy="-1.100" rx="2.155" ry="0.900" fill="none" stroke="#000000"  stroke-width="0.100" /><text x="5.155" y="-0.906"  fill="#000000" text-anchor="middle" font-size="0.80" font-family="monospace" font-style="normal" font-weight="400">
Status</text>
<polyline fill="none" stroke="#000000" stroke-width="0.100"  points="0.385,-0.200 0.385,3.900 2.000,3.900 "/>
<polyline fill="none" stroke="#000000" stroke-width="0.100"  points="5.155,-0.200 5.155,1.400 3.855,1.400 3.855,3.000 "/>
<ellipse cx="14.385" cy="5.900" rx="1.385" ry="0.900" fill="#00FF00" stroke="none"  /><ellipse cx="14.385" cy="5.900" rx="1.385" ry="0.900" fill="none" stroke="#000000"  stroke-width="0.100" /><text x="14.385" y="6.094"  fill="#000000" text-anchor="middle" font-size="0.80" font-family="monospace" font-style="normal" font-weight="400">
ID</text>
<line x1="14.000" y1="6.300" x2="14.770" y2="6.300" stroke="#000000" stroke-width="0.100" />
<polyline fill="none" stroke="#000000" stroke-width="0.100"  points="14.385,6.800 14.385,10.900 16.000,10.900 "/>
<ellipse cx="18.770" cy="5.900" rx="1.770" ry="0.900" fill="#00FF00" stroke="none"  /><ellipse cx="18.770" cy="5.900" rx="1.770" ry="0.900" fill="none" stroke="#000000"  stroke-width="0.100" /><text x="18.770" y="6.094"  fill="#000000" text-anchor="middle" font-size="0.80" font-family="monospace" font-style="normal" font-weight="400">
Name</text>
<ellipse cx="23.578" cy="5.900" rx="1.578" ry="0.900" fill="#00FF00" stroke="none"  /><ellipse cx="23.578" cy="5.900" rx="1.578" ry="0.900" fill="none" stroke="#000000"  stroke-width="0.100" /><text x="23.578" y="6.094"  fill="#000000" text-anchor="middle" font-size="0.80" font-family="monospace" font-style="normal" font-weight="400">
Age</text>
<polyline fill="none" stroke="#000000" stroke-width="0.100"  points="18.770,6.800 18.770,8.400 17.855,8.400 17.855,10.000 "/>
<polyline fill="none" stroke="#000000" stroke-width="0.100"  points="23.578,6.800 23.578,8.400 19.710,8.400 19.710,10.000 "/>
<rect x="30.000" y="10.000" width="2.940" height="1.800" fill="#FFFFFF" stroke="none" stroke-width="0"/>
<rect x="30.000" y="10.000" width="2.940" height="1.800" fill="none" stroke="#000000" stroke-width="0.100" />
<text x="31.470" y="11.094"  fill="#000000" text-anchor="middle" font-size="0.80" font-family="monospace" font-style="normal" font-weight="400">
Room</text>
<ellipse cx="34.540" cy="5.900" rx="2.540" ry="0.900" fill="#00FF00" stroke="none"  /><ellipse cx="34.540" cy="5.900" rx="2.540" ry="0.900" fill="none" stroke="#000000"  stroke-width="0.100" /><text x="34.540" y="6.094"  fill="#000000" text-anchor="middle" font-size="0.80" font-family="monospace" font-style="normal" font-weight="400">
Capacity</text>
<ellipse cx="28.385" cy="5.900" rx="1.385" ry="0.900" fill="#00FF00" stroke="none"  /><ellipse cx="28.385" cy="5.900" rx="1.385" ry="0.900" fill="none" stroke="#000000"  stroke-width="0.100" /><text x="28.385" y="6.094"  fill="#000000" text-anchor="middle" font-size="0.80" font-family="monospace" font-style="normal" font-weight="400">
ID</text>
<line x1="28.000" y1="6.300" x2="28.770" y2="6.300" stroke="#000000" stroke-width="0.100" />
<polyline fill="none" stroke="#000000" stroke-width="0.100"  points="28.385,6.800 28.385,10.900 30.000,10.900 "/>
<polyline fill="none" stroke="#000000" stroke-width="0.100"  points="34.540,6.800 34.540,10.900 32.940,10.900 "/>
<rect x="41.000" y="10.000" width="4.865" height="1.800" fill="#FFFFFF" stroke="none" stroke-width="0"/>
<rect x="41.000" y="10.000" width="4.865" height="1.800" fill="none" stroke="#000000" stroke-width="0.100" />
<text x="43.432" y="11.094"  fill="#000000" text-anchor="middle" font-size="0.80" font-family="monospace" font-style="normal" font-weight="400">
Time Slot</text>
<ellipse cx="39.385" cy="5.900" rx="1.385" ry="0.900" fill="#00FF00" stroke="none"  /><ellipse cx="39.385" cy="5.900" rx="1.385" ry="0.900" fill="none" stroke="#000000"  stroke-width="0.100" /><text x="39.385" y="6.094"  fill="#000000" text-anchor="middle" font-size="0.80" font-family="monospace" font-style="normal" font-weight="400">
ID</text>
<line x1="39.000" y1="6.300" x2="39.770" y2="6.300" stroke="#000000" stroke-width="0.100" />
<polyline fill="none" stroke="#000000" stroke-width="0.100"  points="39.385,6.800 39.385,10.900 41.000,10.900 "/>
<ellipse cx="44.925" cy="5.900" rx="2.925" ry="0.900" fill="#00FF00" stroke="none"  /><ellipse cx="44.925" cy="5.900" rx="2.925" ry="0.900" fill="none" stroke="#000000"  stroke-width="0.100" /><text x="44.925" y="6.094"  fill="#000000" text-anchor="middle" font-size="0.80" font-family="monospace" font-style="normal" font-weight="400">
Start Time</text>
<ellipse cx="51.540" cy="5.900" rx="2.540" ry="0.900" fill="#00FF00" stroke="none"  /><ellipse cx="51.540" cy="5.900" rx="2.540" ry="0.900" fill="none" stroke="#000000"  stroke-width="0.100" /><text x="51.540" y="6.094"  fill="#000000" text-anchor="middle" font-size="0.80" font-family="monospace" font-style="normal" font-weight="400">
End Time</text>
<polyline fill="none" stroke="#000000" stroke-width="0.100"  points="44.925,6.800 44.925,8.400 43.432,8.400 43.432,10.000 "/>
<polyline fill="none" stroke="#000000" stroke-width="0.100"  points="51.540,6.800 51.540,8.400 45.865,8.400 45.865,10.000 "/>
<rect x="41.000" y="20.000" width="4.480" height="1.800" fill="#FFFFFF" stroke="none" stroke-width="0"/>
<rect x="41.000" y="20.000" width="4.480" height="1.800" fill="none" stroke="#000000" stroke-width="0.100" />
<text x="43.240" y="21.094"  fill="#000000" text-anchor="middle" font-size="0.80" font-family="monospace" font-style="normal" font-weight="400">
Activity</text>
<rect x="16.000" y="20.000" width="4.095" height="1.800" fill="#FFFFFF" stroke="none" stroke-width="0"/>
<rect x="16.000" y="20.000" width="4.095" height="1.800" fill="none" stroke="#000000" stroke-width="0.100" />
<text x="18.047" y="21.094"  fill="#000000" text-anchor="middle" font-size="0.80" font-family="monospace" font-style="normal" font-weight="400">
Meeting</text>
<ellipse cx="14.385" cy="25.900" rx="1.385" ry="0.900" fill="#00FF00" stroke="none"  /><ellipse cx="14.385" cy="25.900" rx="1.385" ry="0.900" fill="none" stroke="#000000"  stroke-width="0.100" /><text x="14.385" y="26.094"  fill="#000000" text-anchor="middle" font-size="0.80" font-family="monospace" font-style="normal" font-weight="400">
ID</text>
<line x1="14.000" y1="26.300" x2="14.770" y2="26.300" stroke="#000000" stroke-width="0.100" />
<ellipse cx="42.385" cy="25.900" rx="1.385" ry="0.900" fill="#00FF00" stroke="none"  /><ellipse cx="42.385" cy="25.900" rx="1.385" ry="0.900" fill="none" stroke="#000000"  stroke-width="0.100" /><text x="42.385" y="26.094"  fill="#000000" text-anchor="middle" font-size="0.80" font-family="monospace" font-style="normal" font-weight="400">
ID</text>
<line x1="42.000" y1="26.300" x2="42.770" y2="26.300" stroke="#000000" stroke-width="0.100" />
<ellipse cx="48.297" cy="25.900" rx="3.118" ry="0.900" fill="#00FF00" stroke="none"  /><ellipse cx="48.297" cy="25.900" rx="3.118" ry="0.900" fill="none" stroke="#000000"  stroke-width="0.100" /><text x="48.297" y="26.094"  fill="#000000" text-anchor="middle" font-size="0.80" font-family="monospace" font-style="normal" font-weight="400">
Description</text>
<ellipse cx="51.155" cy="22.900" rx="2.155" ry="0.900" fill="#00FF00" stroke="none"  /><ellipse cx="51.155" cy="22.900" rx="2.155" ry="0.900" fill="none" stroke="#000000"  stroke-width="0.100" /><text x="51.155" y="23.094"  fill="#000000" text-anchor="middle" font-size="0.80" font-family="monospace" font-style="normal" font-weight="400">
Agenda</text>
<polyline fill="none" stroke="#000000" stroke-width="0.100"  points="14.385,25.000 14.385,20.900 16.000,20.900 "/>
<polyline fill="none" stroke="#000000" stroke-width="0.100"  points="48.297,25.000 48.297,23.400 45.480,23.400 45.480,21.800 "/>
<polyline fill="none" stroke="#000000" stroke-width="0.100"  points="51.155,22.000 51.155,20.000 45.480,20.000 "/>
<rect x="5.000" y="20.000" width="4.095" height="1.800" fill="#FFFFFF" stroke="none" stroke-width="0"/>
<rect x="5.000" y="20.000" width="4.095" height="1.800" fill="none" stroke="#0000FF" stroke-width="0.100" />
<text x="7.047" y="21.094"  fill="#000000" text-anchor="middle" font-size="0.80" font-family="monospace" font-style="normal" font-weight="400">
Address</text>
<ellipse cx="3.385" cy="25.900" rx="1.385" ry="0.900" fill="#00FF00" stroke="none"  /><ellipse cx="3.385" cy="25.900" rx="1.385" ry="0.900" fill="none" stroke="#0000FF"  stroke-width="0.100" /><text x="3.385" y="26.094"  fill="#000000" text-anchor="middle" font-size="0.80" font-family="monospace" font-style="normal" font-weight="400">
ID</text>
<line x1="3.000" y1="26.300" x2="3.770" y2="26.300" stroke="#000000" stroke-width="0.100" />
<polyline fill="none" stroke="#0000FF" stroke-width="0.100"  points="3.385,25.000 3.385,20.900 5.000,20.900 "/>
<polygon fill="#FF00FF" stroke="none" stroke-width="0.100" points="14.000,15.524 16.540,14.000 19.080,15.524 16.540,17.048 "/>
<polygon fill="none" stroke="#000000" stroke-width="0.100"  points="14.000,15.524 16.540,14.000 19.080,15.524 16.540,17.048 "/>
<text x="16.540" y="15.718"  fill="#000000" text-anchor="middle" font-size="0.80" font-family="monospace" font-style="normal" font-weight="400">
partakes</text>
<polygon fill="#FF00FF" stroke="none" stroke-width="0.100" points="21.000,15.986 24.310,14.000 27.620,15.986 24.310,17.972 "/>
<polygon fill="none" stroke="#000000" stroke-width="0.100"  points="21.000,15.986 24.310,14.000 27.620,15.986 24.310,17.972 "/>
<text x="24.310" y="16.180"  fill="#000000" text-anchor="middle" font-size="0.80" font-family="monospace" font-style="normal" font-weight="400">
is happen in</text>
<polygon fill="#FF00FF" stroke="none" stroke-width="0.100" points="38.000,15.986 41.310,14.000 44.620,15.986 41.310,17.972 "/>
<polygon fill="none" stroke="#000000" stroke-width="0.100"  points="38.000,15.986 41.310,14.000 44.620,15.986 41.310,17.972 "/>
<text x="41.310" y="16.180"  fill="#000000" text-anchor="middle" font-size="0.80" font-family="monospace" font-style="normal" font-weight="400">
is happen at</text>
<polygon fill="#FF00FF" stroke="none" stroke-width="0.100" points="25.000,25.062 26.770,24.000 28.540,25.062 26.770,26.124 "/>
<polygon fill="none" stroke="#000000" stroke-width="0.100"  points="25.000,25.062 26.770,24.000 28.540,25.062 26.770,26.124 "/>
<text x="26.770" y="25.256"  fill="#000000" text-anchor="middle" font-size="0.80" font-family="monospace" font-style="normal" font-weight="400">
does</text>
<polyline fill="none" stroke="#FF00FF" stroke-width="0.100"  points="16.540,14.000 16.540,12.900 17.855,12.900 17.855,11.800 "/>
<polyline fill="none" stroke="#FF00FF" stroke-width="0.100"  points="24.310,14.000 24.310,12.900 31.470,12.900 31.470,11.800 "/>
<polyline fill="none" stroke="#FF00FF" stroke-width="0.100"  points="24.310,17.972 24.310,18.986 20.095,18.986 20.095,20.000 "/>
<polyline fill="none" stroke="#000000" stroke-width="0.100"  points="42.385,25.000 42.385,23.400 43.240,23.400 43.240,21.800 "/>
<polyline fill="none" stroke="#FF00FF" stroke-width="0.100"  points="28.540,25.062 39.000,25.062 39.000,20.900 41.000,20.900 "/>
<polyline fill="none" stroke="#FF00FF" stroke-width="0.200" stroke-dasharray="0.20,0.20" points="16.540,17.048 16.540,18.524 18.047,18.524 18.047,20.000 "/>
<line x1="11.000" y1="30.000" x2="19.000" y2="30.000" stroke="#FF00FF" stroke-width="0.200" stroke-dasharray="0.20,0.20"/>
<text x="19.500" y="29.827"  fill="#000000" text-anchor="start" font-size="0.78" font-family="monospace" font-style="normal" font-weight="400">
This Lines represent</text>
<text x="19.500" y="30.603"  fill="#000000" text-anchor="start" font-size="0.78" font-family="monospace" font-style="normal" font-weight="400">
a double line.</text>
<polyline fill="none" stroke="#FF00FF" stroke-width="0.100"  points="20.095,20.900 36.000,20.900 36.000,15.986 38.000,15.986 "/>
<polyline fill="none" stroke="#FF00FF" stroke-width="0.200" stroke-dasharray="0.20,0.20" points="18.047,21.800 18.047,23.431 25.000,23.431 25.000,25.062 "/>
<polyline fill="none" stroke="#FF00FF" stroke-width="0.100"  points="43.432,11.800 43.432,12.900 41.310,12.900 41.310,14.000 "/>
<polygon fill="#FF00FF" stroke="none" stroke-width="0.100" points="17.000,0.177 18.962,-1.000 20.925,0.177 18.962,1.355 "/>
<polygon fill="none" stroke="#000000" stroke-width="0.100"  points="17.000,0.177 18.962,-1.000 20.925,0.177 18.962,1.355 "/>
<text x="18.962" y="0.372"  fill="#000000" text-anchor="middle" font-size="0.80" font-family="monospace" font-style="normal" font-weight="400">
is in</text>
<polyline fill="none" stroke="#FF00FF" stroke-width="0.200" stroke-dasharray="0.20,0.20" points="18.962,1.355 18.962,3.000 31.470,3.000 31.470,10.000 "/>
<polyline fill="none" stroke="#FF00FF" stroke-width="0.200" stroke-dasharray="0.20,0.20" points="5.710,3.900 11.355,3.900 11.355,0.177 17.000,0.177 "/>
<polygon fill="#FF00FF" stroke="none" stroke-width="0.200" points="0.000,13.947 1.578,13.000 3.155,13.947 1.578,14.893 "/>
<polygon fill="none" stroke="#00FFAB" stroke-width="0.100"  points="0.000,13.947 1.578,13.000 3.155,13.947 1.578,14.893 "/>
<text x="1.578" y="14.141"  fill="#000000" text-anchor="middle" font-size="0.80" font-family="monospace" font-style="normal" font-weight="400">
has</text>
<polyline fill="none" stroke="#00FFAB" stroke-width="0.200" stroke-dasharray="0.20,0.20" points="3.855,4.800 3.855,8.900 1.578,8.900 1.578,13.000 "/>
<polygon fill="#FF00FF" stroke="none" stroke-width="0.200" points="7.000,13.524 9.540,12.000 12.080,13.524 9.540,15.048 "/>
<polygon fill="none" stroke="#00FFAB" stroke-width="0.100"  points="7.000,13.524 9.540,12.000 12.080,13.524 9.540,15.048 "/>
<text x="9.540" y="13.718"  fill="#000000" text-anchor="middle" font-size="0.80" font-family="monospace" font-style="normal" font-weight="400">
lives at</text>
<polyline fill="none" stroke="#00FFAB" stroke-width="0.100"  points="1.578,14.893 1.578,17.447 7.047,17.447 7.047,20.000 "/>
<polyline fill="none" stroke="#00FFAB" stroke-width="0.100"  points="7.000,13.524 7.000,17.000 10.170,17.000 10.170,20.900 9.095,20.900 "/>
<polyline fill="none" stroke="#00FFAB" stroke-width="0.100"  points="12.080,13.524 14.040,13.524 14.040,11.800 16.000,11.800 "/>
<ellipse cx="24.348" cy="10.900" rx="2.348" ry="0.900" fill="#00FFAB" stroke="none"  /><ellipse cx="24.348" cy="10.900" rx="2.348" ry="0.900" fill="none" stroke="#000000"  stroke-width="0.100" /><text x="24.348" y="11.094"  fill="#000000" text-anchor="middle" font-size="0.80" font-family="monospace" font-style="normal" font-weight="400">
Address</text>
<polyline fill="none" stroke="#000000" stroke-width="0.100"  points="22.000,10.900 20.855,10.900 20.855,10.900 19.710,10.900 "/>
<ellipse cx="-3.652" cy="5.900" rx="2.348" ry="0.900" fill="#00FFAB" stroke="none"  /><ellipse cx="-3.652" cy="5.900" rx="2.348" ry="0.900" fill="none" stroke="#000000"  stroke-width="0.100" /><text x="-3.652" y="6.094"  fill="#000000" text-anchor="middle" font-size="0.80" font-family="monospace" font-style="normal" font-weight="400">
Address</text>
<polyline fill="none" stroke="#000000" stroke-width="0.100"  points="-1.305,5.900 0.348,5.900 0.348,4.800 2.000,4.800 "/>
<text x="32.000" y="9.500"  fill="#000000" text-anchor="start" font-size="0.80" font-family="sans" font-style="normal" font-weight="400">
m</text>
<text x="15.000" y="12.000"  fill="#000000" text-anchor="start" font-size="0.80" font-family="sans" font-style="normal" font-weight="400">
m</text>
<text x="18.000" y="13.000"  fill="#000000" text-anchor="start" font-size="0.80" font-family="sans" font-style="normal" font-weight="400">
m</text>
<text x="17.500" y="19.500"  fill="#000000" text-anchor="start" font-size="0.80" font-family="sans" font-style="normal" font-weight="400">
m</text>
<text x="20.500" y="19.500"  fill="#000000" text-anchor="start" font-size="0.80" font-family="sans" font-style="normal" font-weight="400">
m</text>
<text x="20.500" y="21.500"  fill="#000000" text-anchor="start" font-size="0.80" font-family="sans" font-style="normal" font-weight="400">
m</text>
<text x="18.500" y="22.500"  fill="#000000" text-anchor="start" font-size="0.80" font-family="sans" font-style="normal" font-weight="400">
m</text>
<text x="40.000" y="20.500"  fill="#000000" text-anchor="start" font-size="0.80" font-family="sans" font-style="normal" font-weight="400">
m</text>
<text x="4.000" y="5.500"  fill="#000000" text-anchor="start" font-size="0.80" font-family="sans" font-style="normal" font-weight="400">
1</text>
<text x="6.500" y="19.500"  fill="#000000" text-anchor="start" font-size="0.80" font-family="sans" font-style="normal" font-weight="400">
1</text>
<text x="9.500" y="20.500"  fill="#000000" text-anchor="start" font-size="0.80" font-family="sans" font-style="normal" font-weight="400">
1</text>
<text x="6.000" y="3.500"  fill="#000000" text-anchor="start" font-size="0.80" font-family="sans" font-style="normal" font-weight="400">
1</text>
<text x="32.000" y="12.500"  fill="#000000" text-anchor="start" font-size="0.80" font-family="sans" font-style="normal" font-weight="400">
1</text>
<text x="44.000" y="12.500"  fill="#000000" text-anchor="start" font-size="0.80" font-family="sans" font-style="normal" font-weight="400">
1</text>
<line x1="11.000" y1="30.500" x2="19.000" y2="30.500" stroke="#00FFAB" stroke-width="0.200" stroke-dasharray="0.20,0.20"/>
</svg>